<?xml version="1.0" encoding="UTF-8"?>
<svg version="1.1" xmlns="http://www.w3.org/2000/svg" width="430" height="95">
<path d="M0 0 C2.62808133 -0.2029265 5.19537998 -0.20379275 7.83081055 -0.14352417 C9.28922363 -0.14146217 9.28922363 -0.14146217 10.77709961 -0.13935852 C12.84182666 -0.13027823 14.90653234 -0.10658014 16.97094727 -0.06954956 C20.10337792 -0.01530938 23.23311895 -0.00801675 26.3659668 -0.00875854 C28.375104 0.00600922 30.38422337 0.0235038 32.39331055 0.04397583 C33.31974365 0.0473143 34.24617676 0.05065277 35.20068359 0.05409241 C42.65201725 0.21366668 49.66399768 1.40107202 56.08081055 5.36038208 C60.57901741 10.13120754 61.75305622 14.59333565 61.5690918 21.01272583 C60.7462783 25.91186305 58.01840148 29.75183479 54.4753418 33.14553833 C52.91374509 34.46720966 52.91374509 34.46720966 53.14331055 36.54788208 C54.54263262 37.52183371 55.98955554 38.42795088 57.45581055 39.29788208 C61.50320283 41.93886919 63.73468383 43.75855125 65.14331055 48.54788208 C65.86334852 54.24557388 65.51553516 59.71971288 62.14331055 64.54788208 C54.44233181 73.14172791 47.01803722 75.52130358 35.828125 76.38943481 C28.34753945 76.71110049 20.87219278 76.37049778 13.39331055 76.11038208 C11.71364285 76.05702068 10.03395525 76.00428189 8.35424805 75.95217896 C4.28367086 75.82457924 0.21345466 75.68859496 -3.85668945 75.54788208 C-4.04370117 67.74612427 -4.04370117 67.74612427 -2.3605957 65.96194458 C-1.39959961 65.57135864 -1.39959961 65.57135864 -0.41918945 65.17288208 C3.19052747 63.97692402 3.19052747 63.97692402 4.14331055 61.54788208 C4.26868795 59.95070336 4.33356306 58.34858044 4.36791992 56.74685669 C4.40169739 55.25036842 4.40169739 55.25036842 4.43615723 53.72364807 C4.50682795 49.17905026 4.5645987 44.63461821 4.60327148 40.08963013 C4.62998632 37.68480634 4.67102756 35.28009945 4.72631836 32.87576294 C4.80488539 29.42094341 4.83847438 25.96830375 4.86206055 22.51272583 C4.89505249 21.43047226 4.92804443 20.34821869 4.96203613 19.23316956 C4.95804146 15.32892966 4.95804146 15.32892966 4.14331055 11.54788208 C0.71101241 10.28024071 0.71101241 10.28024071 -2.85668945 10.54788208 C-4.43014702 8.04886124 -3.83318029 6.36489378 -3.45825195 3.44656372 C-1.85668945 0.54788208 -1.85668945 0.54788208 0 0 Z M25.14331055 12.54788208 C24.22838349 15.24398468 24.22838349 15.24398468 24.14331055 18.54788208 C24.06467773 19.66807739 23.98604492 20.78827271 23.9050293 21.94241333 C23.88053711 23.07034302 23.85604492 24.19827271 23.83081055 25.36038208 C23.79342773 26.50120239 23.75604492 27.64202271 23.7175293 28.81741333 C23.85803711 29.71846802 23.99854492 30.61952271 24.14331055 31.54788208 C25.92356916 32.54870287 25.92356916 32.54870287 28.14331055 32.54788208 C29.44268555 32.69225708 30.74206055 32.83663208 32.08081055 32.98538208 C35.72599925 32.93097628 36.10451991 32.58172072 39.08081055 29.98538208 C41.41452213 26.63116611 42.14331055 23.66412421 42.14331055 19.54788208 C40.92890124 16.6716495 40.01892206 15.08892587 37.35424805 13.44241333 C34.79215795 12.40580797 32.714947 12.14569489 29.95581055 12.04788208 C29.07538086 11.99631958 28.19495117 11.94475708 27.2878418 11.89163208 C26.58014648 12.10819458 25.87245117 12.32475708 25.14331055 12.54788208 Z M25.14331055 43.54788208 C22.25418568 47.77044919 22.37164111 54.51958449 23.14331055 59.54788208 C24.2517726 61.86616296 24.2517726 61.86616296 26.14331055 63.54788208 C30.42841091 64.81162354 34.76662644 64.89937589 39.08081055 63.79788208 C42.80634385 61.53998311 43.8858152 60.54107841 45.01831055 56.17288208 C45.15942179 52.08065591 44.67807471 50.69448587 42.14331055 47.54788208 C37.62452073 43.59394099 33.24483116 43.05972091 27.3972168 43.15335083 C26.2815332 43.3486438 26.2815332 43.3486438 25.14331055 43.54788208 Z " fill="#F3F3F3" transform="translate(9.856689453125,7.452117919921875)"/>
<path d="M0 0 C2 2 2 2 2.25 5.3125 C1.87062854 21.12937146 1.87062854 21.12937146 -1 24 C-2.82779617 24.17641704 -4.66425994 24.26755276 -6.5 24.3125 C-8.00046875 24.36857422 -8.00046875 24.36857422 -9.53125 24.42578125 C-10.3459375 24.28527344 -11.160625 24.14476563 -12 24 C-12.7890625 22.17578125 -12.7890625 22.17578125 -13 20 C-14.24927304 15.15263198 -14.24927304 15.15263198 -18 12 C-22.26030926 11.38568574 -26.02574128 11.64210904 -30.0625 13.125 C-32.24242343 14.90955851 -32.24242343 14.90955851 -32.75 17.875 C-31.83363459 21.6931892 -30.25317718 22.61170959 -27.09033203 24.75537109 C-23.57420284 26.84895047 -19.84507775 28.33481722 -16.0625 29.875 C-8.05362135 33.30795599 -0.68849207 36.57115682 3.0625 44.9375 C4.76600367 50.6785286 3.74706912 55.67818729 1.5 61.125 C-1.82201779 67.22935761 -7.93780263 70.39456804 -14.25 72.8125 C-24.97126648 75.92871586 -36.1815954 75.36125535 -47 73 C-47.65959717 72.87641113 -48.31919434 72.75282227 -48.9987793 72.62548828 C-50.94140625 72.0859375 -50.94140625 72.0859375 -54 70 C-54.79880256 66.4085837 -54.42662434 63.0114206 -54.0625 59.375 C-53.99998047 58.3953125 -53.93746094 57.415625 -53.87304688 56.40625 C-53.48308294 51.24012224 -53.48308294 51.24012224 -53 49 C-48.9865023 46.99325115 -44.29051664 46.81826146 -40 48 C-38.75182084 50.58178504 -38.56908822 52.66522147 -38.44140625 55.51953125 C-38.22904873 58.1325961 -38.22904873 58.1325961 -36.13671875 59.7734375 C-31.96146126 62.17020323 -28.34094742 62.23543365 -23.75 61.1875 C-20.01416109 60.32125781 -20.01416109 60.32125781 -18 58 C-17.74171391 54.5338387 -17.74171391 54.5338387 -19 51 C-21.53022946 49.25716052 -23.53305476 48.16166314 -26.3125 47 C-27.7748142 46.32851082 -29.23574202 45.65399481 -30.6953125 44.9765625 C-31.42266602 44.64688477 -32.15001953 44.31720703 -32.89941406 43.97753906 C-40.98963363 40.21263447 -48.86394672 36.27210655 -53 28 C-53.48032374 22.29910837 -53.84919279 16.91068378 -51.5 11.625 C-50.675 10.75875 -49.85 9.8925 -49 9 C-48.46375 8.41734375 -47.9275 7.8346875 -47.375 7.234375 C-35.24877923 -4.79079393 -15.56884607 -3.97815941 0 0 Z " fill="#F3F3F3" transform="translate(319,9)"/>
<path d="M0 0 C1.31201172 1.74389648 1.31201172 1.74389648 1.39306641 3.90454102 C1.25803711 4.72035645 1.12300781 5.53617188 0.98388672 6.37670898 C0.84337891 7.26487305 0.70287109 8.15303711 0.55810547 9.06811523 C0.39439453 9.99237305 0.23068359 10.91663086 0.06201172 11.86889648 C-0.08623047 12.80088867 -0.23447266 13.73288086 -0.38720703 14.69311523 C-1.51917567 21.57508388 -1.51917567 21.57508388 -2.68798828 22.74389648 C-6.50594365 23.50381055 -9.92923238 23.87500358 -13.68798828 22.74389648 C-14.93024591 19.83117878 -15.12165799 17.40314226 -15.24658203 14.24780273 C-15.39224609 13.42151367 -15.53791016 12.59522461 -15.68798828 11.74389648 C-17.45776272 10.77005808 -17.45776272 10.77005808 -19.68798828 10.74389648 C-20.42017578 10.6884668 -21.15236328 10.63303711 -21.90673828 10.57592773 C-22.65955078 10.56948242 -23.41236328 10.56303711 -24.18798828 10.55639648 C-25.31720703 10.53512695 -25.31720703 10.53512695 -26.46923828 10.51342773 C-29.01260397 10.77761537 -30.56006704 11.32836627 -32.68798828 12.74389648 C-34.19538353 16.04398942 -34.19538353 16.04398942 -33.68798828 19.74389648 C-30.00675314 22.86494367 -26.01082875 24.6020635 -21.64892578 26.58374023 C-3.83532192 34.68908791 -3.83532192 34.68908791 1.37451172 43.05639648 C2.98945078 49.40849011 2.50322107 55.17071147 -0.62548828 60.99389648 C-5.16828808 67.49865909 -13.04547334 71.31902082 -20.68798828 72.74389648 C-31.8286028 74.34876823 -45.8004745 74.9188572 -55.68798828 68.74389648 C-56.14046732 65.71525943 -56.15336837 63.8742888 -55.75048828 60.93139648 C-55.68796875 60.23208008 -55.62544922 59.53276367 -55.56103516 58.81225586 C-55.13377157 54.62193686 -54.58675112 50.53561554 -52.68798828 46.74389648 C-48.93208155 45.35281992 -45.46766919 45.4366829 -41.68798828 46.74389648 C-40.44844969 49.33137438 -40.25717527 51.40690991 -40.12939453 54.26342773 C-39.91703701 56.87649258 -39.91703701 56.87649258 -37.82470703 58.51733398 C-33.64944954 60.91409971 -30.0289357 60.97933014 -25.43798828 59.93139648 C-21.70214937 59.0651543 -21.70214937 59.0651543 -19.68798828 56.74389648 C-19.46139629 53.28502387 -19.46139629 53.28502387 -20.68798828 49.74389648 C-23.08937219 47.95292887 -24.95699064 46.83126448 -27.62548828 45.61889648 C-28.30409912 45.28398193 -28.98270996 44.94906738 -29.68188477 44.60400391 C-31.673091 43.62573922 -33.67723368 42.68118255 -35.68798828 41.74389648 C-49.24334218 35.24788922 -49.24334218 35.24788922 -53.56298828 29.05639648 C-55.5675175 23.15417157 -55.71263849 17.33504029 -53.18798828 11.55639648 C-49.23257441 4.70034577 -43.48460907 0.46111969 -35.96142578 -1.74829102 C-26.26715164 -3.91367871 -8.46159628 -6.29663188 0 0 Z " fill="#F3F3F3" transform="translate(252.68798828125,10.256103515625)"/>
<path d="M0 0 C-0.19061113 3.1099711 -0.41679648 6.20925771 -0.69921875 9.3125 C-1.04398352 12.96479662 -1.04398352 12.96479662 -1.01953125 16.5 C-1.31013221 22.1227907 -1.31013221 22.1227907 -3 25 C-7.7060482 26.40445241 -12.12935955 26.330644 -17 26 C-16.99097656 25.08476563 -16.98195313 24.16953125 -16.97265625 23.2265625 C-17.06065322 19.69903165 -17.24774687 16.44968151 -18 13 C-21.08292546 10.89219435 -21.08292546 10.89219435 -25 11 C-26.134375 10.87625 -27.26875 10.7525 -28.4375 10.625 C-32.86066575 11.09059639 -36.6069829 12.0337335 -40 15 C-44.10410137 20.83024344 -44.64439231 26.40399025 -44.5 33.375 C-44.48791504 34.303125 -44.47583008 35.23125 -44.46337891 36.1875 C-44.22970019 44.2317127 -43.21003203 51.16496797 -37.3125 57.0625 C-33.15569261 59.49384017 -29.79927609 60.29242901 -25 60 C-21.3618969 58.78729897 -19.60852722 57.81136962 -17.3125 54.75 C-15.83279575 51.9066293 -15.83279575 51.9066293 -15.125 48.1875 C-14.42375 47.135625 -13.7225 46.08375 -13 45 C-8.61781234 44.3668322 -4.39843267 44.60470577 0 45 C-0.22735365 48.71505543 -0.46575597 52.42831877 -0.734375 56.140625 C-0.884068 58.31557631 -1.01440672 60.49270976 -1.078125 62.671875 C-1.1875 64.75 -1.1875 64.75 -2 68 C-11.53838983 75.15379237 -28.13823915 74.64256735 -39.3125 73.4375 C-49.14063569 71.751409 -55.82367738 67.39403125 -61.59765625 59.296875 C-67.73629463 49.2425035 -68.35110689 36.99764322 -65.8125 25.6796875 C-62.35655086 14.2817014 -56.61931741 7.24962338 -46.5625 1.1875 C-32.07731056 -6.27605524 -15.27112362 -3.17518412 0 0 Z " fill="#F3F3F3" transform="translate(424,10)"/>
<path d="M0 0 C3.02514498 -0.56866693 5.26543962 -0.70312628 8.2890625 -0.5859375 C9.10748627 -0.57744781 9.92591003 -0.56895813 10.76913452 -0.56021118 C13.38908322 -0.52656081 16.00597854 -0.45126821 18.625 -0.375 C20.39839312 -0.34491507 22.17183437 -0.3175367 23.9453125 -0.29296875 C28.29805556 -0.22673237 32.64850983 -0.12313751 37 0 C37.1953125 6.0546875 37.1953125 6.0546875 37 8 C35 10 35 10 31.4375 10.0625 C29.7359375 10.5265625 29.7359375 10.5265625 28 11 C26.3938171 20.05037418 26.70708679 29.40030182 26.64990234 38.56835938 C26.63317811 40.53722822 26.60567863 42.50603252 26.56787109 44.47460938 C26.51352369 47.3271394 26.49131578 50.17827468 26.4765625 53.03125 C26.45389313 53.91655396 26.43122375 54.80185791 26.40786743 55.71398926 C26.35696149 58.41360225 26.35696149 58.41360225 27 62 C30.99515327 63.79315823 34.85392905 62.82731331 38.98046875 61.7734375 C41.18261599 61.09289109 41.18261599 61.09289109 42.9375 59 C44.20854068 55.41117925 44.79200926 51.88047974 45.27734375 48.109375 C45.51582031 47.41328125 45.75429687 46.7171875 46 46 C49.72639431 44.37071071 54.01332618 44.86928938 58 45 C58.33 45.33 58.66 45.66 59 46 C58.51492537 71.48507463 58.51492537 71.48507463 55 75 C52.56727499 75.07661523 50.16268477 75.09064252 47.73046875 75.0625 C46.19441757 75.05431393 44.65836613 75.04617787 43.12231445 75.03808594 C41.47737528 75.02552398 39.83243713 75.01282634 38.1875 75 C26.88384882 74.92484737 15.63692097 74.85951884 4.3737793 75.99609375 C2.20703125 76.171875 2.20703125 76.171875 -1 76 C-2.36143041 73.53977733 -1.99518431 71.76403135 -1.9375 68.9375 C-1 66 -1 66 2 64.3125 C2.99 63.879375 3.98 63.44625 5 63 C5.95830075 60.12509775 6.15865928 58.18742885 6.22460938 55.19311523 C6.24712769 54.21878036 6.269646 53.2444455 6.29284668 52.24058533 C6.3637247 47.80996536 6.42127567 43.37950939 6.45996094 38.94848633 C6.48667642 36.60583168 6.52771846 34.26329706 6.58300781 31.92114258 C6.66166991 28.5498082 6.69517859 25.18070783 6.71875 21.80859375 C6.75174194 20.7565123 6.78473389 19.70443085 6.81872559 18.62046814 C6.81116738 15.90077019 6.79833077 13.60143445 6 11 C2.59737856 9.37008022 2.59737856 9.37008022 -1 9 C-2 6 -2 6 -1.58056641 2.84912109 C-1.05897949 1.90891113 -0.53739258 0.96870117 0 0 Z " fill="#F3F3F3" transform="translate(87,8)"/>
<path d="M0 0 C1.51815699 0.00015911 3.0363194 0.00585313 4.55444336 0.01586914 C5.35208603 0.01728409 6.1497287 0.01869904 6.97154236 0.02015686 C9.52916146 0.02577223 12.08669429 0.03832727 14.64428711 0.05102539 C16.37410356 0.05603841 18.10392137 0.06060166 19.83374023 0.06469727 C24.08312264 0.07574664 28.33244023 0.09302153 32.58178711 0.11352539 C32.49492855 1.58600268 32.38675405 3.05723579 32.26928711 4.52758789 C32.18227539 5.75662842 32.18227539 5.75662842 32.09350586 7.01049805 C31.92463867 7.70449707 31.75577148 8.39849609 31.58178711 9.11352539 C28.58178711 10.48852539 28.58178711 10.48852539 25.58178711 11.11352539 C21.81918784 22.40132319 23.4539034 36.79264421 23.51928711 48.61352539 C23.5243215 50.22680522 23.52888092 51.84008661 23.53295898 53.45336914 C23.54378951 57.34012753 23.5609425 61.22680834 23.58178711 65.11352539 C25.63053385 65.06062826 27.6792806 65.00773112 29.72802734 64.95483398 C30.33976807 65.00720215 30.95150879 65.05957031 31.58178711 65.11352539 C32.64428711 66.73852539 32.64428711 66.73852539 32.58178711 69.11352539 C32.5844458 70.1404248 32.58710449 71.16732422 32.58984375 72.2253418 C32.25718506 73.17844238 31.92452637 74.13154297 31.58178711 75.11352539 C28.59381728 75.69337069 26.38430977 75.81475605 23.39038086 75.69946289 C22.57054214 75.69097321 21.75070343 75.68248352 20.90602112 75.67373657 C18.27579739 75.64002639 15.64859064 75.5647232 13.01928711 75.48852539 C11.24133646 75.45844819 9.46333796 75.43106848 7.68530273 75.40649414 C3.31629377 75.34017843 -1.05044744 75.23654327 -5.41821289 75.11352539 C-4.61743164 67.30297852 -4.61743164 67.30297852 -2.82446289 65.59790039 C-2.19540039 65.35555664 -1.56633789 65.11321289 -0.91821289 64.86352539 C2.63050162 63.57576404 2.63050162 63.57576404 3.29344177 61.31365967 C3.60948106 58.90221485 3.70158283 56.59426372 3.6953125 54.16137695 C3.6951992 52.69030487 3.6951992 52.69030487 3.69508362 51.18951416 C3.68992233 50.13834412 3.68476105 49.08717407 3.67944336 48.00415039 C3.67802841 46.92220398 3.67661346 45.84025757 3.67515564 44.7255249 C3.66956029 41.27149689 3.65700861 37.8175338 3.64428711 34.36352539 C3.63927151 32.02107841 3.63470871 29.67863041 3.63061523 27.33618164 C3.61959238 21.59527409 3.60285885 15.85440438 3.58178711 10.11352539 C2.63303711 10.13415039 1.68428711 10.15477539 0.70678711 10.17602539 C-2.41821289 10.11352539 -2.41821289 10.11352539 -4.41821289 9.11352539 C-4.64868164 7.30102539 -4.64868164 7.30102539 -4.60571289 5.11352539 C-4.59926758 4.39165039 -4.59282227 3.66977539 -4.58618164 2.92602539 C-4.27890447 -0.38970966 -3.44199353 0.11431519 0 0 Z " fill="#F3F3F3" transform="translate(155.418212890625,7.886474609375)"/>
<path d="M0 0 C2.85614762 -0.36950926 5.33457821 -0.46396736 8.19140625 -0.390625 C9.01124496 -0.38496521 9.83108368 -0.37930542 10.67576599 -0.37347412 C13.30526098 -0.35100689 15.93341404 -0.30079433 18.5625 -0.25 C20.34047517 -0.22994826 22.11847161 -0.21169518 23.89648438 -0.1953125 C28.26484331 -0.1511086 32.63219386 -0.08201268 37 0 C37.1953125 6.0546875 37.1953125 6.0546875 37 8 C35 10 35 10 32.375 10.125 C31.59125 10.08375 30.8075 10.0425 30 10 C30.639375 9.79375 31.27875 9.5875 31.9375 9.375 C34.35423882 8.11365555 34.35423882 8.11365555 34.62890625 4.9140625 C34.81259766 3.47160156 34.81259766 3.47160156 35 2 C32.52054816 1.94629346 30.04224618 1.90647457 27.5625 1.875 C26.50192383 1.84986328 26.50192383 1.84986328 25.41992188 1.82421875 C23.61241409 1.80692202 21.80457829 1.89568912 20 2 C19.67 2.66 19.34 3.32 19 4 C17.65493603 3.71770262 16.32474861 3.36596448 15 3 C12.43264053 2.726994 9.88570006 2.49612512 7.3125 2.3125 C6.27899414 2.22258789 6.27899414 2.22258789 5.22460938 2.13085938 C3.48699736 2.00613403 1.74207123 1.99369576 0 2 C-0.33 2.66 -0.66 3.32 -1 4 C-1.01196289 2.02441406 -1.01196289 2.02441406 0 0 Z " fill="#FAFAFA" transform="translate(87,8)"/>
<path d="M0 0 C3.34192078 -0.70439587 6.66605414 -0.4629901 10.0625 -0.3125 C11.4865918 -0.27866211 11.4865918 -0.27866211 12.93945312 -0.24414062 C15.29451315 -0.18496826 17.64649581 -0.10260079 20 0 C20 0.66 20 1.32 20 2 C13.66630465 3.58342384 7.42506657 2.68576244 1 2 C1 2.99 1 3.98 1 5 C0.34 5 -0.32 5 -1 5 C-1.12890625 2.51953125 -1.12890625 2.51953125 0 0 Z " fill="#FBFBFB" transform="translate(152,8)"/>
<path d="M0 0 C4.84973256 3.14577247 6.6832748 6.51899754 8 12 C8 13.32 8 14.64 8 16 C7.34 16 6.68 16 6 16 C5.45629017 13.17921484 5.16543297 10.35922368 4.85546875 7.50390625 C4.57316406 6.67761719 4.29085938 5.85132813 4 5 C1.49182138 4.05395585 1.49182138 4.05395585 -1 4 C-0.67 2.68 -0.34 1.36 0 0 Z " fill="#FBFBFB" transform="translate(315,46)"/>
<path d="M0 0 C0.66 0 1.32 0 2 0 C1.47731534 2.76276177 0.89130413 5.3260876 0 8 C0.825 8.144375 1.65 8.28875 2.5 8.4375 C3.325 8.623125 4.15 8.80875 5 9 C5 9.33 5 9.66 5 10 C2.0625 10.25 2.0625 10.25 -1 10 C-2 8.375 -2 8.375 -2 6 C-1.1875 2.75 -1.1875 2.75 0 0 Z " fill="#F9F9F9" transform="translate(8,8)"/>
<path d="M0 0 C2.875 -0.125 2.875 -0.125 6 0 C6.66 0.66 7.32 1.32 8 2 C7.67 2.99 7.34 3.98 7 5 C5 5 5 5 2 4 C2 3.34 2 2.68 2 2 C1.34 1.34 0.68 0.68 0 0 Z " fill="#F9F9F9" transform="translate(313,9)"/>
<path d="M0 0 C0.66 0 1.32 0 2 0 C3.84837585 3.19911205 5 5.2712714 5 9 C4.01 8.67 3.02 8.34 2 8 C1.375 5.625 1.375 5.625 1 3 C0.67 2.01 0.34 1.02 0 0 Z " fill="#FAFAFA" transform="translate(66,15)"/>
</svg>
